<?xml version="1.0" encoding="utf-8"?>
<svg version="1.2" baseProfile="tiny-ps" xmlns="http://www.w3.org/2000/svg" width="300" height="300">
<title>Levelace Sentinel</title>
<g>
  <path fill="#f5f4ee" d="M0 300h300V0H0v300z"/>
  <g fill="#dfb664" transform="matrix(.1 0 0 -.1 0 300)">
    <path d="m1193 2237-223-142 3-239 2-239 95-59 95-59 18 5c10 3 58 31 107 63l88 57 4 91c2 49 1 116-2 148l-5 58-91-65c-50-36-94-66-98-66-3 0-6 26-6 58v58l13 16c6 8 60 54 120 102l108 88 12-9c6-6 49-40 95-76 45-37 87-67 93-67h10l-3 146-3 147-100 63c-55 35-102 63-105 63-3-1-105-65-227-142zm475-242-3-215-80 56c-44 31-91 67-106 80-14 13-28 24-32 24h-7v-297l115-72 115-73 13 6c6 3 50 29 97 59l85 53 3 239 2 240-94 58c-51 31-96 57-99 57-4 0-8-97-9-215zm-356-454-103-68 102-67c56-36 106-66 112-66 13 0 207 123 207 132 0 7-197 138-208 138-4 0-53-31-110-69zm713-386c-16-9-40-26-53-38l-22-21-10-36-10-36 10-33c11-40 34-68 72-87l27-14h86l34 21 33 20-22 24-23 24-21-14-20-15h-56l-20 20-20 20v70l20 20 20 20h56l20-15 21-14 22 23 22 24-31 22-31 22-37 4-37 5-30-16zM412 1028l3-133 98-3 97-3v61H480v210h-71l3-132zm230 0 3-133 103-3 102-3v61H710v50h121l-3 28-3 27-57 3-58 3v39h140v60H639l3-132zm220 123c2-4 27-65 57-135l54-126h65l9 13c13 17 103 232 103 246v11h-61l-20-47c-36-84-51-113-59-113-4 0-23 36-41 80l-34 80h-77l4-9zm318-126V889l103 3 102 3 3 28 3 27h-141v50h110v50h-110v50h130v60h-200v-135zm250 0V890h271l10 30 11 30h107l16-30 16-30h71l-5 13c-2 6-29 67-58 134l-54 123h-71l-57-127-56-128-1 23v22h-130v210h-70v-135zm380-17c0-5-13-8-30-8-34 0-34 1-18 47l12 34 18-33c9-18 17-36 18-40zm412 20 3-133 103-3 102-3v61h-140v50h120v49l-57 3-58 3-3 23-3 22h141v60h-211l3-132zM453 813l-13-5v-38l25-12c14-6 25-16 25-21v-9l-25 4-25 5v-8c0-4 5-11 11-14l10-7 25 6 24 6v40l-25 10c-14 5-25 15-25 21v11l20-5 20-5 5 8 5 8-16 6c-18 7-23 7-41-1zm691-7c-3-8-4-31-2-52l3-39 38-3 37-3v21h-60v20h19c11 0 23 5 26 10l6 10h-51v30h65l-15 10c-8 5-25 10-38 10h-23l-5-14zm96-42v-55l10 6 10 6v99h-20v-56zm532 40-22-15v-46l19-17 19-18 23 4c12 2 24 8 26 13l3 10h-65l-3 24-4 24 14 8 13 9 23-5 22-5v9c0 8-23 21-39 21-3 0-17-7-29-16zm-1244-6c-2-7-2-29 2-48l5-35 18-3 17-3v10c0 6-4 11-10 11h-10v19c0 11 5 23 10 26l10 6-14 15c-18 17-23 18-28 2zm209-2c-3-7-2-28 2-47l7-34 17-3 17-3v10c0 6-4 11-10 11h-10v18c0 10 4 22 10 28l10 10-19 11-19 12-5-13zm791 2c-2-7-2-29 2-48l5-35 18-3 17-3v10c0 6-4 11-10 11h-10v19c0 11 5 23 10 26l10 6-14 15c-18 17-23 18-28 2zm-938-48v-40h20v53l18 13 17 13-27 1h-28v-40zm65 31-6-11 23-1 23-1-15-5c-8-3-21-10-28-16l-12-10 11-13 11-14h49l-3 38-3 37-22 3-21 3-7-10zm145-6-12-14 4-17c2-9 10-21 19-27l16-10 19 8 19 8-30 7-30 8 26 1c14 0 29 4 32 7l6 7-10 18-10 19h-18c-10 0-24-7-31-15zm43-12c-7-2-19-2-25 0l-13 5h50l-12-5zm44 20c-4-3-7-17-7-29v-23l18-9c9-5 23-7 31-4l14 5-8-13-7-12-19 5-19 5v-8c0-4 7-11 16-14l15-6 20 10 19 11v89h-33c-19 0-37-3-40-7zm51-30-3-18-18-3-17-3v41h41l-3-17zm32 32c0-4 7-20 16-37l16-32-16-12-17-12 10-7c6-3 15-4 20-1 12 8 51 84 51 99l-1 12-20-24-20-25-10 15c-5 7-9 17-9 22 0 8-20 10-20 2zm310-14-10-20 6-15c3-8 14-18 25-21l19-6 12 7 13 8-25 7-25 7 28 1 27 1v13c0 18-21 37-42 37h-17l-11-19zm47-7c-3-3-12-4-19-1l-13 5 19 1c11 1 17-2 13-5zm33 18c0-14 28-72 35-72 9 0 36 62 32 73l-4 12-16-30c-9-16-16-25-17-19 0 5-7 19-15 30l-14 19-1-13zm85-2-6-10 28-1 28-1-25-7-25-7v-39h60l3 23 4 23-12 15c-14 16-46 19-55 4zm42-46c-3-3-12-4-19-1l-13 5 19 1c11 1 17-2 13-5zm103 41-12-14 4-17c2-9 10-21 19-27l16-10 19 8 19 8-30 7-30 8 33 1 32 1v13c0 33-48 49-70 22zm43-12c-7-2-19-2-25 0l-13 5h50l-12-5zm227 8-11-21 11-20 11-20h17c9 0 23 4 30 9l14 8-4 29-3 29-27 3-27 3-11-20zm58-18 4-13-17-6-16-7-11 11-10 10 7 12 7 11 16-3c8-2 17-9 20-15zm32-3v-40h20v60h39l3-32 4-33 8 18 9 18-11 25-12 24h-60v-40zm100 21-10-20 6-15 6-16 24-6c13-3 24-10 24-15s5-9 10-9h10v100h-59l-11-19zm50-21v-20h-14c-18 0-29 16-21 30 3 6 13 10 21 10h14v-20zm46 27-9-18 11-25 12-24h60v80h-19l-3-27-3-28-17-3-17-3-3 33-4 33-8-18zm95-9c-11-31-4-47 25-54l23-6 13 8 13 9-30 6-30 7 28 1 27 1v38l-16 6c-9 3-22 6-30 6h-15l-8-22zm46-4c-3-3-12-4-19-1l-13 5 19 1c11 1 17-2 13-5zm43-15v-40l10 6c6 3 10 17 10 31v24h10c6 0 10 5 10 10v10h-40v-41zm-1270-30v-10l10 6c6 3 10 8 10 11 0 2-4 4-10 4-5 0-10-5-10-11zm610 1c0-5 5-10 10-10 6 0 10 5 10 10 0 6-4 10-10 10-5 0-10-4-10-10zm710 0c0-5 5-10 10-10 6 0 10 5 10 10 0 6-4 10-10 10-5 0-10-4-10-10z"/>
  </g>
</g>
</svg>
